
<?xml version="1.0" standalone="no"?>
<!DOCTYPE svg PUBLIC "-//W3C//DTD SVG 20010904//EN"
 "http://www.w3.org/TR/2001/REC-SVG-20010904/DTD/svg10.dtd">
<svg version="1.0" xmlns="http://www.w3.org/2000/svg"
 width="575.000000pt" height="896.000000pt" viewBox="0 0 575.000000 896.000000"
 preserveAspectRatio="xMidYMid meet">

<g transform="translate(0.000000,896.000000) scale(0.100000,-0.100000)"
fill="#000000" stroke="none">
<path d="M0 7016 l0 -1944 42 -1 c24 0 52 -1 63 -1 22 -1 84 4 210 16 142 14
340 9 363 -9 8 -6 16 -6 25 1 15 13 189 10 194 -3 7 -24 -98 -47 -112 -25 -7
12 -84 2 -103 -13 -7 -6 -43 -12 -79 -13 -77 -4 -90 -10 -37 -19 102 -18 104
-21 20 -34 -70 -11 -80 -11 -95 3 -13 14 -14 18 -2 25 18 12 -7 18 -78 20 -29
1 -71 9 -92 18 -31 12 -42 13 -54 3 -8 -7 -25 -10 -37 -7 -15 4 -30 -1 -45
-15 -20 -19 -26 -20 -47 -8 -21 11 -27 10 -41 -4 -19 -19 -20 -19 -63 -7 l-32
10 0 -225 0 -225 298 1 c163 0 303 1 310 0 6 0 12 -7 12 -15 0 -8 3 -15 8 -15
13 1 43 50 37 60 -3 6 7 23 24 38 20 17 32 40 35 62 3 27 20 52 70 103 70 70
128 107 171 107 14 0 25 3 25 8 0 4 12 8 27 9 15 0 59 18 99 38 81 42 113 42
158 0 27 -25 35 -57 14 -52 -7 1 -23 -18 -35 -43 -18 -35 -23 -61 -23 -127 0
-108 -18 -154 -89 -223 -43 -42 -70 -83 -111 -163 -29 -59 -57 -110 -61 -113
-5 -2 -6 -11 -2 -19 3 -9 -1 -15 -10 -15 -16 0 -57 49 -57 68 0 5 -6 12 -14
15 -9 4 -12 14 -9 26 5 18 1 21 -31 21 -39 0 -46 -13 -23 -44 18 -25 9 -66
-17 -76 -11 -4 -31 -18 -43 -29 -12 -12 -26 -21 -32 -21 -5 0 -12 -6 -15 -12
-9 -24 -36 24 -37 66 0 23 -3 52 -5 66 -5 29 -9 73 -12 113 -3 38 -53 88 -83
83 -35 -5 -54 13 -32 30 10 7 13 14 7 14 -6 0 -21 -9 -33 -19 -16 -14 -18 -21
-9 -24 9 -4 6 -12 -12 -27 -21 -19 -26 -20 -35 -7 -14 20 -43 4 -56 -30 -8
-21 -14 -24 -36 -20 -38 7 -53 -1 -53 -31 0 -24 1 -25 13 -7 10 13 21 16 39
12 20 -5 29 -2 42 18 23 35 36 31 29 -10 -3 -19 -3 -42 1 -51 6 -15 13 -10 46
25 22 24 40 51 40 62 0 22 -2 22 38 8 36 -12 45 -32 34 -74 -7 -26 -14 -30
-43 -31 -51 -1 -92 -21 -87 -42 4 -12 -2 -17 -19 -18 -13 -1 -26 -4 -27 -5 -2
-2 -6 -29 -9 -60 -6 -64 -15 -56 93 -77 54 -10 70 -18 70 -36 0 -28 -33 -41
-109 -43 -42 -2 -87 -4 -100 -5 -19 -2 -26 3 -31 21 l-6 25 -22 -28 c-12 -16
-23 -31 -23 -35 -1 -3 -3 -96 -4 -206 -2 -186 -10 -510 -20 -873 -7 -229 -8
-228 237 -226 84 1 135 -2 132 -8 -4 -5 6 -8 22 -7 46 5 194 -12 194 -22 0 -5
-13 -9 -29 -9 -45 0 -45 -16 -1 -29 22 -6 40 -17 40 -24 1 -7 15 -21 33 -32
32 -20 44 -50 30 -71 -6 -8 -93 -14 -273 -19 -295 -8 -338 -10 -346 -17 -8 -9
97 -17 216 -17 63 0 133 -1 155 -2 l40 -2 -45 -8 c-25 -4 -83 -8 -128 -8 -60
-1 -83 -4 -80 -13 7 -21 61 -29 158 -22 190 14 392 17 495 9 39 -3 80 -5 93
-5 42 0 24 -27 -20 -28 -23 -1 -44 -5 -47 -10 -10 -13 -60 -42 -73 -42 -8 0
-22 -9 -31 -21 -10 -11 -21 -18 -24 -15 -3 3 0 12 7 21 18 21 5 45 -24 45 -22
0 -143 -24 -174 -35 -9 -3 -10 -10 -3 -24 8 -14 6 -22 -8 -35 -11 -10 -22 -13
-25 -8 -3 6 -24 8 -47 5 -35 -5 -41 -3 -46 16 -7 26 -23 28 -23 1 0 -13 -5
-18 -15 -14 -18 7 -20 -17 -4 -33 8 -8 -4 -14 -40 -23 -27 -6 -55 -18 -62 -26
-13 -16 -69 -19 -69 -4 0 6 11 10 25 10 18 0 25 5 25 20 0 14 -7 20 -24 20
-18 0 -25 -7 -29 -28 -6 -28 -8 -29 -84 -36 -42 -3 -148 -9 -235 -13 l-158 -6
0 -55 0 -55 283 7 c155 4 296 9 312 11 17 2 158 6 315 10 157 3 332 8 390 10
58 3 224 7 370 10 146 2 346 7 444 11 l179 7 -6 -164 c-5 -124 -3 -186 8 -254
8 -49 15 -113 15 -142 0 -28 5 -64 11 -80 7 -15 15 -73 19 -128 4 -55 12 -122
18 -150 6 -27 18 -131 26 -230 15 -178 11 -506 -10 -833 l-7 -112 407 0 406 0
1 83 c0 45 2 109 4 142 2 33 6 219 10 414 6 275 5 370 -6 424 -11 60 -11 77 4
131 9 33 19 92 23 129 4 37 10 70 15 72 4 3 17 -11 29 -30 12 -19 27 -35 35
-35 7 0 29 20 49 44 20 24 65 70 101 101 63 56 65 57 100 45 19 -6 35 -15 35
-19 0 -3 16 -31 35 -61 20 -31 35 -67 35 -85 0 -16 4 -37 10 -45 7 -12 11 -12
28 3 19 17 21 16 51 -18 17 -20 31 -43 31 -53 1 -9 8 -35 16 -57 34 -93 36
-132 9 -199 -23 -57 -24 -68 -14 -120 5 -31 16 -75 24 -97 14 -39 14 -64 -1
-239 -7 -83 4 -121 52 -177 33 -41 49 -41 69 -3 9 17 23 30 33 30 31 1 90 45
199 148 19 17 36 32 37 32 1 0 36 33 79 73 75 70 92 97 62 97 -8 0 -15 -4 -15
-10 0 -5 -8 -10 -17 -10 -16 0 -16 1 -1 16 9 9 29 16 45 16 30 0 86 37 103 68
8 15 6 30 -10 62 -11 23 -20 52 -20 64 0 12 -7 27 -15 34 -8 7 -13 16 -10 20
3 4 -2 21 -10 36 l-15 29 0 -33 c0 -25 -5 -35 -20 -39 -11 -3 -20 -9 -20 -14
0 -5 -7 -9 -16 -9 -11 0 -14 5 -10 16 3 9 6 20 6 25 0 5 11 14 25 19 19 7 25
17 25 40 0 16 5 30 10 30 6 0 10 -4 10 -9 0 -5 7 -11 15 -14 14 -6 49 55 89
156 9 21 20 36 25 33 16 -10 -14 -128 -50 -199 -10 -19 -4 -37 12 -37 5 0 9 6
9 14 0 12 36 101 61 152 6 11 9 38 7 60 -2 30 -7 38 -20 36 -12 -2 -15 3 -11
17 5 20 -81 113 -195 211 -29 25 -72 63 -95 85 -24 22 -77 66 -119 97 -42 32
-104 84 -138 117 -56 54 -61 62 -55 90 9 43 -2 69 -36 86 -34 18 -64 8 -74
-25 -7 -20 -31 -27 -37 -11 -1 6 -36 44 -76 85 -41 41 -71 79 -68 84 5 9 248
20 626 27 118 3 321 8 450 11 228 7 309 8 416 5 l52 -1 7 -72 7 -73 69 -66
c51 -49 69 -74 71 -95 1 -16 2 -38 3 -49 1 -11 4 -26 9 -33 4 -7 8 -47 8 -89
0 -52 5 -84 16 -100 12 -19 16 -60 17 -191 2 -92 8 -186 14 -209 6 -23 12 -75
12 -117 1 -61 4 -76 18 -81 18 -5 47 -87 37 -104 -9 -14 4 -41 20 -41 8 0 14
-3 15 -7 1 -16 10 -560 10 -601 0 -75 -10 -78 -70 -22 -29 27 -57 47 -62 44
-5 -3 -3 -12 5 -20 8 -8 18 -23 21 -34 3 -11 11 -20 17 -20 12 0 47 -41 48
-56 0 -22 50 -57 92 -65 24 -4 78 -5 121 -2 l77 6 0 1120 0 1119 -347 -7
c-192 -4 -400 -8 -463 -10 -463 -14 -1189 -26 -1125 -18 89 10 53 31 -43 24
-18 -1 -40 3 -50 8 -18 11 -3 13 73 13 23 0 25 1 8 5 -25 5 -31 34 -10 51 18
15 19 61 2 78 -21 21 -19 34 5 34 11 0 29 9 39 19 23 23 11 31 -48 31 -44 0
-68 16 -76 52 -5 21 -3 27 14 33 12 3 21 11 21 16 0 5 6 9 14 9 7 0 21 11 30
25 11 17 26 25 46 25 36 0 41 25 8 34 -56 15 -56 20 -8 146 43 110 52 181 47
352 -7 225 -77 621 -121 681 l-21 28 21 17 c31 25 94 117 94 137 0 9 -9 24
-20 33 -18 16 -19 23 -9 97 5 44 14 91 19 105 5 14 14 56 20 95 13 79 22 95
51 88 12 -4 25 0 30 8 6 10 9 10 9 2 0 -8 13 -13 30 -13 21 0 28 4 24 14 -6
14 22 30 37 20 5 -3 9 -11 9 -19 0 -19 27 -26 43 -10 18 18 58 21 140 11 49
-5 72 -4 82 4 9 8 29 10 52 6 21 -4 45 -6 53 -6 8 0 51 2 95 3 44 2 85 0 90
-4 13 -9 105 11 105 23 0 5 4 7 9 4 5 -3 14 1 21 9 7 8 22 15 34 14 20 0 19
-1 -3 -10 -19 -8 -22 -12 -12 -22 13 -13 291 -16 374 -3 41 6 47 10 42 27 -6
17 -1 19 37 19 54 0 90 -9 82 -21 -3 -5 3 -12 13 -16 10 -4 23 -14 30 -22 11
-14 12 -14 13 0 0 8 -6 21 -12 28 -11 11 -7 13 19 8 18 -4 94 -12 168 -18 110
-10 144 -9 176 1 l39 13 0 179 0 178 -32 1 c-18 1 -174 3 -346 4 -197 1 -317
6 -323 12 -13 13 16 44 35 37 7 -3 19 2 26 11 16 20 -5 48 -31 40 -12 -4 -19
1 -24 14 -10 31 -40 31 -77 0 -21 -18 -45 -28 -65 -29 -18 0 -33 -3 -33 -8 0
-9 -64 -7 -79 3 -20 12 -31 -5 -19 -30 16 -35 -2 -52 -54 -49 -59 2 -58 1 -58
25 0 18 4 20 28 15 50 -12 56 -11 60 8 4 17 -1 18 -55 11 -48 -5 -62 -3 -72 9
-8 9 -17 16 -22 16 -13 0 -4 -61 11 -70 9 -6 7 -10 -9 -15 -25 -8 -42 1 -36
18 6 16 -4 29 -43 50 -21 12 -43 17 -58 13 -26 -7 -33 -26 -9 -26 8 0 15 -4
15 -9 0 -11 -111 -8 -130 4 -8 5 -11 4 -6 -3 8 -14 -48 -26 -126 -26 -32 -1
-58 -4 -58 -8 0 -5 6 -8 13 -9 6 0 1 -5 -13 -10 -39 -16 -67 -3 -75 32 -5 23
-9 28 -16 18 -5 -8 -4 -15 1 -17 6 -2 10 -12 10 -23 0 -15 -7 -19 -37 -19 -21
0 -45 5 -53 11 -12 8 -10 9 7 4 15 -4 25 0 32 13 11 21 -3 42 -28 42 -20 -1
-51 -24 -51 -39 0 -6 -5 -11 -11 -11 -5 0 -8 3 -6 8 3 4 1 33 -3 64 -9 67 -3
101 16 94 14 -5 39 14 46 36 3 9 10 10 28 2 15 -7 43 -7 77 -2 44 7 57 6 70
-8 14 -13 30 -15 82 -11 36 3 91 1 121 -5 30 -5 99 -10 153 -10 54 -1 100 -5
103 -9 5 -8 165 -4 274 7 91 10 187 7 195 -6 3 -4 27 -11 53 -15 60 -8 79 -19
65 -37 -17 -22 -22 -57 -8 -68 10 -8 15 -8 20 0 4 7 19 9 38 4 56 -12 108 -12
104 0 -3 6 -9 10 -16 9 -7 -2 -10 14 -9 42 2 35 6 45 20 45 9 0 19 -4 23 -9 6
-11 54 11 66 30 6 11 13 10 35 -1 21 -12 28 -12 31 -2 6 17 23 15 23 -3 0 -11
11 -15 40 -15 22 0 40 5 40 10 0 6 9 10 19 10 11 0 23 -4 26 -10 3 -5 24 -10
46 -10 l39 0 0 1520 c0 836 -1 1520 -3 1520 -1 0 -28 -9 -60 -20 -31 -11 -70
-20 -87 -20 -23 0 -30 -4 -30 -20 0 -12 9 -24 22 -29 l22 -8 -21 -11 c-27 -15
-46 -8 -58 21 -6 12 -20 23 -32 25 -28 4 -29 21 -2 69 25 46 48 66 63 54 6 -4
23 -10 37 -13 21 -4 33 3 59 34 36 42 66 52 55 18 -3 -11 -2 -20 2 -20 21 0
33 28 33 76 l0 52 -51 11 c-59 13 -69 9 -69 -25 0 -15 -6 -24 -15 -24 -8 0
-15 -6 -15 -12 0 -7 -10 0 -22 15 -28 38 -58 49 -80 30 -39 -35 -98 19 -78 71
14 37 29 40 41 9 8 -20 13 -24 17 -13 6 18 49 60 61 60 5 0 12 -7 15 -16 4
-10 13 -13 25 -9 22 7 70 -14 90 -39 8 -9 29 -16 47 -16 l34 0 0 250 0 251
-35 -7 c-45 -8 -44 3 2 52 34 36 35 39 15 42 -31 5 -81 -25 -88 -53 -8 -32
-19 -32 -40 0 -12 19 -25 25 -50 25 -38 0 -44 -14 -14 -30 25 -13 27 -57 3
-62 -10 -2 -26 7 -36 19 -13 16 -29 23 -54 23 -29 0 -33 -3 -24 -13 13 -17 5
-27 -23 -28 -21 0 -21 -1 -1 -9 19 -8 18 -9 -4 -9 -21 -1 -23 -5 -18 -30 5
-24 1 -33 -25 -52 -17 -13 -38 -23 -47 -22 -9 1 -11 0 -3 -3 17 -8 15 -54 -3
-54 -20 0 -35 32 -28 59 5 19 2 22 -18 19 -16 -2 -25 -11 -27 -25 -3 -19 -10
-23 -38 -23 -24 0 -34 4 -34 16 0 22 -23 12 -37 -16 -6 -12 -17 -26 -25 -31
-10 -7 -10 -11 4 -21 9 -7 18 -24 20 -38 4 -31 38 -41 38 -11 0 28 19 27 29
-1 5 -13 11 -22 15 -20 18 7 26 -1 26 -26 0 -15 4 -32 9 -38 6 -5 11 -29 13
-54 3 -39 6 -45 27 -48 15 -3 27 -14 34 -33 9 -23 18 -29 41 -29 l29 0 -29
-22 c-31 -24 -53 -49 -54 -59 0 -4 11 -10 25 -13 14 -4 25 -11 25 -16 0 -18
-18 -19 -41 -2 -13 10 -37 19 -54 21 -43 5 -68 20 -61 38 4 10 -2 21 -13 30
-11 7 -18 20 -15 27 3 7 -2 16 -12 20 -13 5 -14 9 -4 21 18 22 4 31 -18 12
-11 -10 -22 -13 -31 -7 -16 9 -107 12 -134 4 -12 -4 -15 -12 -12 -27 4 -17 -2
-27 -29 -44 -32 -21 -37 -21 -64 -7 -36 17 -46 49 -26 78 13 19 12 22 -8 38
-23 18 -23 18 18 18 53 0 73 20 54 55 -15 29 -4 48 13 24 14 -18 50 -29 65
-20 6 3 12 28 13 54 3 52 -9 68 -43 59 -11 -3 -24 3 -33 14 -12 17 -17 17 -47
6 -59 -21 -71 -17 -65 22 4 27 1 38 -19 57 -27 25 -32 67 -9 75 38 15 41 74 4
74 -14 0 -19 -7 -19 -25 0 -29 -24 -43 -44 -25 -11 9 -22 8 -46 -5 -18 -9 -35
-13 -38 -9 -4 4 -2 9 5 11 7 2 9 11 6 20 -5 13 -1 15 25 10 19 -4 32 -2 32 3
0 6 -13 10 -30 10 -20 0 -30 5 -30 15 0 8 -7 15 -15 15 -8 0 -15 -7 -15 -15 0
-24 -19 -18 -50 15 -36 39 -61 38 -103 -5 -19 -19 -39 -35 -46 -35 -10 0 -15
-19 -12 -46 1 -6 -18 -17 -41 -23 -58 -17 -91 -45 -83 -71 7 -24 -3 -25 -40
-6 -18 10 -36 11 -56 6 -26 -8 -31 -6 -38 13 -11 29 -5 37 30 37 29 0 35 12
23 44 -7 17 -54 22 -54 6 0 -5 -14 -10 -32 -10 -30 0 -30 -1 -14 -19 15 -16
15 -19 1 -31 -12 -10 -15 -10 -15 5 0 14 -3 15 -14 6 -11 -9 -15 -9 -18 1 -4
10 -10 10 -31 1 -22 -10 -29 -10 -42 3 -8 9 -15 20 -15 25 0 5 -27 9 -60 9
-33 0 -60 -4 -60 -10 0 -5 -7 -10 -16 -10 -12 0 -14 -7 -9 -28 6 -31 -15 -59
-35 -47 -6 4 -20 -5 -31 -19 -23 -29 -64 -35 -73 -11 -3 8 -16 15 -29 15 -32
0 -56 27 -33 36 22 9 20 24 -4 24 -23 0 -26 10 -8 28 9 9 5 12 -20 12 -29 0
-31 2 -20 20 7 11 24 22 38 25 18 4 31 18 43 45 15 36 21 40 52 40 27 0 35 4
35 18 0 38 -57 42 -539 42 l-458 0 -7 -40 c-4 -27 -13 -43 -29 -51 -12 -7 -25
-17 -29 -23 -4 -6 -8 3 -8 19 0 17 7 41 16 53 8 12 12 27 9 32 -4 7 -465 10
-1346 10 l-1339 0 0 -1944z m3225 1914 c3 -5 1 -10 -4 -10 -6 0 -11 5 -11 10
0 6 2 10 4 10 3 0 8 -4 11 -10z m-3021 -65 c3 -8 1 -15 -4 -15 -6 0 -10 7 -10
15 0 8 2 15 4 15 2 0 6 -7 10 -15z m2549 -30 c8 -19 -13 -31 -24 -14 -13 20
-11 29 5 29 8 0 16 -7 19 -15z m805 -4 c3 -8 -1 -12 -9 -9 -7 2 -15 10 -17 17
-3 8 1 12 9 9 7 -2 15 -10 17 -17z m-3218 -16 c-7 -9 -15 -13 -17 -11 -7 7 7
26 19 26 6 0 6 -6 -2 -15z m2302 -50 c0 -5 -5 -11 -11 -13 -6 -2 -11 4 -11 13
0 9 5 15 11 13 6 -2 11 -8 11 -13z m1798 -30 c0 -8 -4 -15 -9 -15 -5 0 -14 7
-21 15 -10 13 -9 15 9 15 12 0 21 -6 21 -15z m-480 -14 c0 -10 7 -22 16 -25 8
-3 12 -10 9 -16 -10 -17 -44 -11 -57 10 -7 11 -22 20 -33 20 -20 1 -20 1 -1
15 29 22 66 19 66 -4z m420 -35 c-18 -18 -42 -16 -35 2 4 9 8 23 8 30 0 8 6 7
19 -5 12 -11 15 -20 8 -27z m-845 5 c-9 -16 -25 -3 -18 15 4 10 9 12 15 6 6
-6 7 -15 3 -21z m-85 -1 c20 -16 22 -20 8 -20 -10 0 -18 5 -18 10 0 6 -9 10
-20 10 -11 0 -20 5 -20 10 0 16 23 11 50 -10z m1292 0 c14 0 14 -4 5 -25 -10
-22 -43 -43 -51 -33 -2 1 -6 18 -10 37 -6 31 -4 33 17 27 12 -3 29 -6 39 -6z
m-528 -16 c9 -3 14 -10 11 -15 -7 -10 -35 0 -35 12 0 11 3 11 24 3z m1272 -13
c-15 -16 -22 -17 -47 -8 -42 16 -36 27 18 27 45 0 46 -1 29 -19z m-1866 0 c0
-6 -5 -13 -11 -17 -6 -3 -8 -17 -4 -32 8 -32 -9 -43 -46 -30 -32 11 -34 16
-18 52 7 15 22 27 38 29 14 2 29 5 34 6 4 0 7 -3 7 -8z m280 -6 c-7 -8 -19
-15 -26 -15 -8 0 -11 6 -8 15 4 8 15 15 26 15 17 0 18 -3 8 -15z m494 -36 c-7
-12 -31 -11 -39 1 -4 6 -1 18 6 26 12 14 14 14 26 -2 7 -9 10 -21 7 -25z m238
29 c27 -13 43 -54 26 -64 -5 -3 -19 3 -31 14 -12 11 -34 25 -49 31 -16 6 -28
15 -28 21 0 14 50 13 82 -2z m-732 -48 c0 -21 -24 -28 -35 -10 -8 14 3 30 21
30 8 0 14 -9 14 -20z m1441 -1 c-25 -20 -42 -21 -48 -2 -4 12 17 20 52 22 19
0 18 -1 -4 -20z m-576 -18 c-3 -6 -11 -8 -17 -5 -6 4 -5 9 3 15 16 10 23 4 14
-10z m-1680 -31 c-5 -8 -11 -8 -21 1 -12 10 -12 14 -2 20 16 10 33 -5 23 -21z
m1460 20 c39 1 39 1 20 -20 -14 -16 -26 -19 -51 -14 -18 3 -34 1 -38 -5 -8
-12 -56 -15 -56 -4 0 4 10 17 22 30 16 17 29 22 43 18 11 -4 38 -6 60 -5z
m-1505 -16 c0 -8 -5 -12 -10 -9 -6 4 -8 11 -5 16 9 14 15 11 15 -7z m-135 -63
c-11 -10 -35 11 -35 31 l0 23 20 -25 c10 -14 17 -26 15 -29z m705 41 c0 -13
-12 -22 -22 -16 -10 6 -1 24 13 24 5 0 9 -4 9 -8z m-523 -34 c-3 -8 -6 -5 -6
6 -1 11 2 17 5 13 3 -3 4 -12 1 -19z m883 12 c0 -5 -5 -10 -11 -10 -5 0 -7 5
-4 10 3 6 8 10 11 10 2 0 4 -4 4 -10z m-482 -32 c-4 -27 -28 -36 -28 -10 0 20
8 32 22 32 5 0 8 -10 6 -22z m582 -18 c-21 -21 -40 -26 -40 -11 0 11 43 40 52
35 4 -3 -2 -14 -12 -24z m150 -11 c0 -10 -7 -19 -15 -19 -15 0 -21 31 -9 43
11 10 24 -3 24 -24z m-808 -8 c23 -22 6 -40 -19 -19 -9 7 -26 11 -39 10 -23
-3 -33 16 -17 32 11 11 52 -2 75 -23z m-212 15 c0 -2 7 -20 15 -40 l15 -36
-28 0 c-25 0 -28 3 -29 40 -2 29 2 40 13 40 7 0 14 -2 14 -4z m2148 -35 c3 -8
-1 -12 -9 -9 -7 2 -15 10 -17 17 -3 8 1 12 9 9 7 -2 15 -10 17 -17z m-1368
-11 c0 -22 -20 -26 -38 -8 -19 19 -14 28 13 28 18 0 25 -5 25 -20z m-1035 -6
c49 -20 33 -38 -35 -41 -27 -1 -57 -6 -67 -11 -11 -7 -24 -7 -35 -1 -29 16
-21 32 12 26 17 -4 30 -2 30 3 0 7 39 34 56 40 1 0 18 -7 39 -16z m1225 4 c41
-13 48 -29 15 -34 -10 -2 -29 -5 -42 -8 -16 -5 -25 -1 -33 13 -23 43 -8 50 60
29z m-1010 -41 c0 -5 -7 -6 -16 -3 -9 3 -18 6 -20 6 -2 0 -4 7 -4 15 0 13 3
13 20 3 11 -7 20 -17 20 -21z m150 18 c0 -15 -26 -32 -36 -23 -2 3 -2 13 2 22
8 20 34 21 34 1z m-2150 -35 c0 -5 -5 -10 -11 -10 -5 0 -7 5 -4 10 3 6 8 10
11 10 2 0 4 -4 4 -10z m3057 -17 c3 -7 -3 -9 -17 -6 -29 8 -37 25 -9 21 12 -1
24 -8 26 -15z m-962 -13 c-3 -5 -11 -10 -16 -10 -6 0 -7 5 -4 10 3 6 11 10 16
10 6 0 7 -4 4 -10z m1885 -25 c0 -8 -9 -15 -20 -15 -20 0 -26 11 -13 23 12 13
33 7 33 -8z m-3920 -15 c0 -5 -9 -10 -20 -10 -11 0 -20 5 -20 10 0 6 9 10 20
10 11 0 20 -4 20 -10z m2125 0 c3 -5 3 -15 -1 -21 -6 -11 -23 6 -24 24 0 10
18 9 25 -3z m1515 -23 c0 -20 -9 -25 -31 -20 -18 5 -19 6 -2 19 23 17 33 17
33 1z m-1621 -44 c2 -2 -5 -3 -17 -3 -14 0 -22 6 -22 16 0 14 3 15 18 3 9 -7
19 -15 21 -16z m-1909 -13 c0 -11 -4 -20 -10 -20 -5 0 -10 9 -10 20 0 11 5 20
10 20 6 0 10 -9 10 -20z m2000 -21 c0 -5 -7 -9 -15 -9 -15 0 -20 12 -9 23 8 8
24 -1 24 -14z m1559 -8 c18 -18 18 -19 1 -33 -22 -19 -67 -30 -91 -23 -29 10
-23 25 11 25 23 0 31 5 36 25 7 30 18 31 43 6z m-2319 0 c0 -6 -4 -13 -10 -16
-5 -3 -10 1 -10 9 0 9 5 16 10 16 6 0 10 -4 10 -9z m610 -17 c0 -8 -5 -12 -10
-9 -6 4 -8 11 -5 16 9 14 15 11 15 -7z m281 -25 c-5 -27 -27 -44 -25 -19 1 6
2 19 3 30 0 11 7 20 15 20 10 0 12 -8 7 -31z m-133 -54 c1 -21 -3 -33 -8 -30
-6 3 -10 22 -10 41 0 46 16 36 18 -11z m-61 15 c7 -11 9 -21 3 -25 -9 -6 -13
-1 -23 28 -9 23 5 22 20 -3z m433 -43 c0 -26 -26 -67 -42 -67 -11 0 -15 5 -12
15 4 8 10 15 14 15 4 0 11 11 14 25 7 26 26 35 26 12z m-115 -39 c18 -37 8
-53 -28 -44 -32 8 -42 42 -15 50 14 3 19 10 14 21 -10 27 12 6 29 -27z m-170
2 c3 -5 -3 -10 -15 -10 -12 0 -18 5 -15 10 3 6 10 10 15 10 5 0 12 -4 15 -10z
m1854 -25 c-21 -21 -73 -32 -67 -14 3 8 14 14 26 14 12 0 27 6 34 13 6 6 14 9
17 7 3 -3 -2 -12 -10 -20z m-1845 -23 c3 -5 2 -26 -1 -47 l-6 -38 -12 34 c-11
35 -9 59 5 59 5 0 11 -4 14 -8z m540 -13 c-3 -5 -17 -9 -32 -9 -25 1 -26 2 -9
15 20 14 51 10 41 -6z m-2146 -6 c-4 -22 -22 -20 -26 1 -2 10 3 16 13 16 10 0
15 -7 13 -17z m1107 -53 c3 -5 -1 -10 -9 -10 -9 0 -16 5 -16 10 0 6 4 10 9 10
6 0 13 -4 16 -10z m35 -20 c0 -5 -2 -10 -4 -10 -3 0 -8 5 -11 10 -3 6 -1 10 4
10 6 0 11 -4 11 -10z m1886 -119 c24 -12 43 -16 49 -10 16 16 35 10 35 -12 0
-16 5 -20 20 -16 15 4 20 0 20 -14 0 -14 -7 -19 -25 -19 -31 0 -32 -11 -3 -29
18 -11 23 -11 32 0 6 8 22 20 35 27 21 13 26 11 52 -17 30 -34 49 -40 49 -16
0 8 4 15 10 15 6 0 5 -10 -2 -25 -9 -21 -8 -27 12 -43 35 -28 21 -50 -30 -47
-23 1 -46 8 -51 16 -6 11 -13 9 -32 -9 -29 -27 -57 -20 -57 14 0 21 -3 23 -19
14 -11 -5 -27 -7 -35 -4 -28 11 -17 -14 14 -33 31 -18 40 -43 16 -43 -7 0 -25
9 -39 20 -23 19 -25 25 -22 86 3 64 3 66 -20 60 -64 -16 -104 -16 -121 1 -16
16 -15 18 9 24 42 11 50 19 36 35 -9 11 -9 17 1 29 16 19 18 19 66 -4z m-1232
-28 c4 -4 15 -8 24 -8 10 0 19 -12 23 -32 4 -22 3 -33 -5 -33 -18 0 -36 22
-36 42 0 10 -7 18 -15 18 -8 0 -15 5 -15 10 0 12 13 13 24 3z m-707 -45 c-3
-8 -6 -5 -6 6 -1 11 2 17 5 13 3 -3 4 -12 1 -19z m2441 10 c-3 -7 -13 -15 -24
-17 -16 -3 -17 -1 -5 13 16 19 34 21 29 4z m-1583 -74 c0 -10 8 -20 19 -22 26
-5 14 -60 -19 -87 -28 -23 -30 -35 -14 -80 10 -27 9 -35 -7 -53 -10 -12 -25
-22 -32 -22 -11 0 -12 3 -3 14 15 18 4 66 -15 66 -17 0 -17 0 2 38 8 18 22 32
30 32 19 0 18 34 -1 50 -21 17 -19 67 3 79 23 14 37 8 37 -15z m1481 4 c-3
-13 -5 -26 -5 -30 -1 -11 -61 -10 -61 1 0 10 50 50 62 51 5 0 6 -10 4 -22z
m-2353 -45 c8 -10 22 -36 30 -58 44 -122 47 -153 18 -179 -11 -10 -21 -32 -23
-50 -2 -23 -7 -30 -20 -28 -13 2 -18 -4 -18 -23 0 -24 -1 -25 -16 -11 -19 19
-60 12 -89 -16 -22 -21 -92 -68 -102 -68 -3 0 -3 13 0 28 6 30 0 45 -23 55 -8
4 -22 11 -30 16 -14 9 -39 18 -58 22 -4 1 -18 5 -31 10 -44 17 -91 20 -126 9
-41 -14 -44 -27 -10 -40 35 -13 31 -24 -21 -50 -25 -13 -48 -28 -51 -33 -8
-12 17 -27 46 -27 19 0 22 -4 17 -23 -8 -33 47 -67 116 -71 29 -2 62 -5 73 -7
14 -3 27 8 50 43 16 26 35 48 41 48 17 0 26 -60 12 -78 -8 -10 -13 -48 -13
-106 l0 -91 -43 -2 c-25 -2 -52 3 -66 12 -13 9 -30 13 -39 9 -10 -3 -23 5 -37
24 -20 27 -28 30 -79 31 -31 1 -65 2 -76 4 -14 1 -21 -5 -23 -19 -2 -12 -11
-24 -21 -27 -19 -5 -45 -95 -35 -122 4 -8 3 -22 0 -31 -5 -14 -9 -12 -26 9
-16 20 -20 40 -20 101 0 55 -5 85 -20 113 -17 34 -18 45 -8 111 10 72 21 89
33 52 3 -11 10 -20 16 -20 15 0 58 96 53 117 -3 12 2 36 12 54 24 48 114 179
123 179 3 0 26 20 51 46 81 82 99 86 386 102 19 1 37 -5 47 -15z m755 -56 c2
-10 -3 -17 -12 -17 -18 0 -29 16 -21 31 9 14 29 6 33 -14z m1439 -29 c-16 -10
-21 -2 -13 19 6 15 9 15 16 3 6 -9 5 -17 -3 -22z m253 -4 c0 -17 -22 -14 -28
4 -2 7 3 12 12 12 9 0 16 -7 16 -16z m27 -33 c0 -10 -16 -29 -35 -42 -28 -19
-35 -20 -43 -8 -7 11 -9 11 -9 -3 0 -10 -7 -18 -16 -18 -29 0 -10 33 31 52 22
11 47 23 55 28 8 5 16 9 17 9 1 1 1 -7 0 -18z m-3847 -41 c0 -5 -7 -10 -16
-10 -8 0 -12 5 -9 10 3 6 10 10 16 10 5 0 9 -4 9 -10z m2178 -28 c3 -9 -2 -13
-14 -10 -9 1 -19 9 -22 16 -3 9 2 13 14 10 9 -1 19 -9 22 -16z m497 -33 c10
-14 1 -21 -19 -13 -9 3 -13 10 -10 15 7 12 21 11 29 -2z m135 -29 c0 -17 -19
-20 -34 -4 -21 21 -11 37 15 24 10 -6 19 -15 19 -20z m-680 5 c0 -8 -4 -15
-10 -15 -5 0 -7 7 -4 15 4 8 8 15 10 15 2 0 4 -7 4 -15z m777 -11 c-3 -3 -12
-4 -19 -1 -8 3 -5 6 6 6 11 1 17 -2 13 -5z m913 -49 c0 -8 -4 -15 -9 -15 -5 0
-11 7 -15 15 -3 9 0 15 9 15 8 0 15 -7 15 -15z m-4900 -15 c0 -5 -4 -10 -10
-10 -5 0 -10 5 -10 10 0 6 5 10 10 10 6 0 10 -4 10 -10z m3827 -1 c12 -12 6
-49 -9 -49 -5 0 -7 -4 -3 -9 3 -5 1 -12 -4 -15 -9 -6 -23 62 -15 76 7 11 18
10 31 -3z m-307 -34 c0 -8 -4 -15 -9 -15 -13 0 -22 16 -14 24 11 11 23 6 23
-9z m-1025 -18 c10 -8 14 -17 8 -20 -5 -3 -17 3 -26 14 -19 22 -9 25 18 6z
m-65 -1 c0 -3 -4 -8 -10 -11 -5 -3 -10 -1 -10 4 0 6 5 11 10 11 6 0 10 -2 10
-4z m1503 -16 c19 0 27 -5 27 -17 0 -22 -41 -42 -73 -36 -19 4 -24 11 -24 35
0 25 3 29 21 24 12 -3 33 -6 49 -6z m-1373 -31 c0 -6 -7 -8 -16 -5 -9 3 -18 6
-20 6 -2 0 -4 7 -4 15 0 13 4 14 20 5 11 -6 20 -16 20 -21z m635 0 c9 -10 -6
-59 -18 -59 -17 0 -47 32 -47 50 0 13 8 17 29 16 16 -1 32 -4 36 -7z m425 -14
c0 -8 -7 -15 -15 -15 -8 0 -15 7 -15 15 0 8 7 15 15 15 8 0 15 -7 15 -15z
m390 -44 c0 -6 11 -22 25 -37 14 -15 25 -31 25 -35 0 -5 7 -6 16 -2 24 9 32
-13 33 -85 0 -61 -1 -64 -16 -49 -10 10 -17 31 -16 51 1 25 -3 33 -16 32 -9
-1 -15 6 -15 16 1 11 -19 31 -52 53 -53 35 -61 45 -47 58 10 11 63 8 63 -2z
m245 -72 c-8 -12 -45 -12 -45 0 0 10 30 20 43 14 4 -3 5 -9 2 -14z m-370 -10
c4 -6 5 -12 2 -15 -7 -7 -37 7 -37 17 0 13 27 11 35 -2z m59 -44 c6 -17 4 -18
-18 -9 -20 8 -21 24 -2 24 8 0 16 -7 20 -15z m-1629 -15 c4 -6 11 -8 16 -5 5
4 23 -3 39 -15 19 -14 54 -24 100 -29 38 -4 73 -10 76 -14 4 -4 -2 -16 -14
-28 -12 -11 -29 -31 -38 -44 -9 -14 -32 -29 -51 -34 -30 -9 -43 -6 -85 15 -57
29 -59 37 -6 25 20 -5 39 -7 42 -4 6 6 -62 70 -96 90 -22 14 -24 19 -15 35 13
20 23 23 32 8z m1905 -10 c0 -5 -4 -10 -10 -10 -5 0 -10 5 -10 10 0 6 5 10 10
10 6 0 10 -4 10 -10z m-183 -16 c-3 -3 -12 -4 -19 -1 -8 3 -5 6 6 6 11 1 17
-2 13 -5z m-73 -20 c5 -14 4 -15 -9 -4 -17 14 -19 20 -6 20 5 0 12 -7 15 -16z
m-2664 -30 c0 -13 -4 -24 -10 -24 -5 0 -10 14 -10 31 0 17 4 28 10 24 6 -3 10
-17 10 -31z m2737 -19 c-4 -8 -11 -15 -17 -15 -6 0 -6 7 2 20 14 22 24 19 15
-5z m-2066 -197 c10 -13 18 -30 19 -39 0 -32 79 -89 123 -89 39 0 87 -21 87
-37 0 -13 -12 -14 -71 -9 -40 3 -85 13 -101 21 -22 11 -35 12 -50 4 -21 -11
-28 -7 -80 40 -41 36 -33 111 12 111 10 0 22 5 25 10 9 15 15 13 36 -12z
m1754 -57 c0 -20 -5 -24 -37 -26 -31 -1 -38 2 -38 16 0 22 27 40 55 36 14 -1
20 -9 20 -26z m120 8 c9 -14 2 -20 -31 -22 -20 -1 -29 3 -32 16 -3 13 3 17 27
17 16 0 33 -5 36 -11z m-2347 -76 c23 -3 42 -8 42 -12 0 -4 -12 -16 -28 -28
-33 -25 -95 -114 -144 -208 -35 -70 -148 -389 -148 -423 0 -9 -5 -24 -10 -32
-6 -10 -8 6 -4 49 6 69 -9 79 -21 14 -12 -67 -28 -114 -37 -105 -4 4 1 44 13
88 12 43 25 101 30 129 5 28 17 56 27 65 21 16 38 80 22 80 -16 0 -11 57 5 64
9 3 15 18 15 38 0 38 26 112 72 201 52 105 54 107 91 95 18 -6 51 -13 75 -15z
m386 -62 c20 -62 20 -105 1 -125 -17 -17 -21 -101 -5 -111 6 -4 8 -10 5 -15
-3 -5 6 -21 20 -36 14 -15 25 -24 25 -20 0 4 7 1 15 -8 9 -8 22 -13 31 -9 8 3
21 -3 29 -13 10 -14 17 -16 22 -7 6 8 27 5 78 -14 49 -18 89 -25 133 -24 46 1
61 -2 56 -11 -5 -7 -2 -9 9 -5 10 4 2 -21 -27 -77 -68 -132 -113 -190 -164
-212 -56 -23 -112 -73 -112 -99 0 -14 -8 -28 -17 -33 -47 -24 -207 -73 -230
-70 l-26 3 59 110 c124 233 137 264 138 335 2 98 -6 116 -68 151 l-55 30 -6
64 c-9 78 -1 125 25 158 11 14 23 39 26 56 9 44 19 39 38 -18z m2086 -2 c0
-11 -4 -17 -10 -14 -5 3 -10 13 -10 21 0 8 5 14 10 14 6 0 10 -9 10 -21z
m-377 -66 c-7 -2 -19 -2 -25 0 -7 3 -2 5 12 5 14 0 19 -2 13 -5z m417 -269 c0
-16 -16 -19 -25 -4 -8 13 4 32 16 25 5 -4 9 -13 9 -21z m-2780 -29 c0 -14 -4
-25 -10 -25 -11 0 -14 33 -3 43 11 11 13 8 13 -18z m4060 -40 c0 -19 -24 -30
-41 -19 -9 5 -7 11 6 21 24 17 35 17 35 -2z m-4103 -337 c-3 -7 -5 -2 -5 12 0
14 2 19 5 13 2 -7 2 -19 0 -25z m-953 -197 c3 -5 0 -11 -8 -14 -19 -8 -57 3
-50 14 7 12 51 12 58 0z m53 -7 c-3 -3 -12 -4 -19 -1 -8 3 -5 6 6 6 11 1 17
-2 13 -5z m4506 -125 c47 -24 76 -55 77 -82 0 -10 7 -25 15 -34 26 -25 14 -47
-30 -54 -22 -4 -42 -5 -44 -3 -2 2 4 15 13 28 9 14 16 33 16 43 0 21 -48 53
-67 46 -8 -3 -13 4 -13 15 0 11 -7 25 -15 32 -8 7 -12 16 -9 21 7 12 9 12 57
-12z m-4473 -193 c0 -3 -4 -8 -10 -11 -5 -3 -10 -1 -10 4 0 6 5 11 10 11 6 0
10 -2 10 -4z m631 -56 c31 -25 18 -25 -23 0 -20 12 -26 20 -17 20 9 0 27 -9
40 -20z m-365 -62 c4 -6 -3 -19 -16 -30 -17 -14 -26 -16 -36 -7 -11 9 -14 8
-14 -1 0 -10 -3 -10 -15 0 -23 19 -13 34 26 41 19 4 37 7 41 8 4 0 10 -4 14
-11z m59 -8 c-3 -5 -13 -10 -21 -10 -8 0 -14 5 -14 10 0 6 9 10 21 10 11 0 17
-4 14 -10z m4211 -48 c-5 -8 -66 -4 -66 4 0 2 16 4 36 4 19 0 33 -4 30 -8z
m-4252 -25 c-3 -9 -12 -13 -20 -10 -12 4 -11 8 3 18 21 16 26 14 17 -8z m-74
-5 c0 -5 -7 -9 -15 -9 -8 0 -15 4 -15 9 0 4 7 8 15 8 8 0 15 -4 15 -8z m-516
-8 c20 -8 20 -20 1 -28 -19 -7 -65 10 -65 24 0 11 39 14 64 4z m541 -24 c3 -5
-1 -10 -10 -10 -9 0 -13 5 -10 10 3 6 8 10 10 10 2 0 7 -4 10 -10z m4029 -5
c10 -7 15 -18 11 -24 -9 -15 -56 -13 -78 3 -17 13 -16 15 10 24 37 14 35 14
57 -3z m-379 -16 c11 -16 1 -19 -13 -3 -7 8 -8 14 -3 14 5 0 13 -5 16 -11z
m201 -4 c4 -11 11 -12 24 -5 12 6 23 5 36 -5 17 -13 13 -14 -43 -15 -56 0 -61
2 -56 20 6 23 31 27 39 5z m-3871 -15 c3 -5 1 -10 -4 -10 -6 0 -11 5 -11 10 0
6 2 10 4 10 3 0 8 -4 11 -10z m3490 0 c3 -5 -1 -10 -10 -10 -9 0 -13 5 -10 10
3 6 8 10 10 10 2 0 7 -4 10 -10z m90 -10 c3 -5 -1 -10 -10 -10 -9 0 -13 5 -10
10 3 6 8 10 10 10 2 0 7 -4 10 -10z m-3677 -21 c2 -10 -5 -19 -17 -22 -21 -5
-31 9 -23 31 6 18 36 11 40 -9z m-58 -29 c0 -5 -4 -10 -10 -10 -5 0 -10 5 -10
10 0 6 5 10 10 10 6 0 10 -4 10 -10z m-556 -49 c7 -11 -42 -21 -98 -21 -38 1
-40 2 -22 15 21 16 111 21 120 6z m-199 -11 c17 -7 15 -9 -12 -9 -17 -1 -35 4
-38 9 -7 12 22 12 50 0z m4755 -31 c0 -5 -15 -10 -32 -11 -18 -1 -42 -2 -53
-3 -26 -2 -45 5 -45 16 0 8 95 17 118 10 6 -2 12 -7 12 -12z m-610 -8 c0 -5
-11 -11 -25 -13 -29 -6 -36 18 -7 25 20 4 32 0 32 -12z m878 5 c7 -4 12 -15
12 -25 0 -11 10 -21 22 -25 17 -4 20 -8 12 -16 -9 -9 -17 -8 -31 1 -12 7 -29
9 -39 5 -18 -7 -17 -8 5 -25 l24 -18 -33 -7 c-19 -3 -63 -3 -98 0 -56 6 -63 9
-48 20 12 8 36 10 73 7 44 -5 55 -3 51 7 -5 16 -56 32 -76 25 -7 -3 -11 -1 -8
4 3 5 -4 11 -17 15 -36 10 -57 7 -57 -8 0 -7 -10 -16 -22 -20 -36 -9 -88 -7
-88 4 0 11 -33 14 -43 3 -4 -3 -2 -12 5 -20 14 -18 -2 -36 -25 -27 -21 8 -22
44 -2 44 8 0 15 5 15 11 0 8 24 10 78 6 42 -3 69 -3 59 -1 -18 6 -18 6 0 20
12 8 13 13 5 14 -7 0 -10 5 -6 11 7 12 212 8 232 -5z m-679 -5 c20 -13 -23
-25 -46 -12 -10 5 -31 7 -47 4 -20 -4 -27 -2 -22 6 8 13 95 15 115 2z m-359
-41 c0 -25 -45 -49 -61 -33 -14 14 -4 32 25 43 32 13 36 12 36 -10z m-3352
-25 c1 -6 -2 -10 -8 -9 -25 3 -30 5 -30 12 0 12 34 8 38 -3z m3582 5 c0 -5 -9
-10 -20 -10 -11 0 -20 5 -20 10 0 6 9 10 20 10 11 0 20 -4 20 -10z m205 0 c-3
-5 -12 -10 -20 -10 -8 0 -17 5 -20 10 -4 6 5 10 20 10 15 0 24 -4 20 -10z
m752 4 c-3 -3 -12 -4 -19 -1 -8 3 -5 6 6 6 11 1 17 -2 13 -5z m-4964 -31 c-13
-2 -35 -2 -50 0 -16 2 -5 4 22 4 28 0 40 -2 28 -4z m4951 -2 c6 -9 -26 -21
-56 -21 -29 0 -21 18 10 23 15 2 30 5 34 6 4 0 9 -3 12 -8z m-4604 -11 c0 -12
-28 -25 -36 -17 -9 9 6 27 22 27 8 0 14 -5 14 -10z m852 -65 c38 -41 45 -65
22 -82 -25 -18 -33 -16 -27 7 7 25 -21 37 -42 20 -12 -10 -12 -16 -4 -26 6 -8
15 -11 20 -8 5 3 9 1 9 -5 0 -10 -50 -41 -66 -41 -3 0 -4 7 0 15 7 20 -24 36
-47 23 -17 -9 -17 -11 -3 -33 19 -29 18 -29 -94 -85 -47 -23 -97 -51 -112 -61
-14 -11 -39 -19 -55 -19 -26 1 -25 2 18 25 25 13 70 48 100 79 30 31 60 56 67
56 7 0 23 5 34 11 20 11 21 12 4 24 -16 12 -13 18 33 65 28 29 51 56 51 61 0
4 8 12 17 18 20 11 30 5 75 -44z m2782 4 c5 -4 -4 -11 -20 -14 -16 -4 -50 -11
-75 -17 -58 -14 -122 0 -127 26 -3 15 1 18 20 13 12 -3 32 -1 43 3 23 10 146
1 159 -11z m234 11 c13 0 20 -4 17 -10 -7 -11 -54 -13 -79 -4 -23 9 -7 27 18
20 11 -3 31 -6 44 -6z m644 -23 c-5 -20 -6 -20 -13 -1 -11 29 -10 34 5 28 8
-3 12 -13 8 -27z m358 17 c0 -2 -14 -4 -31 -4 -16 0 -28 4 -25 9 5 8 56 3 56
-5z m-1060 -44 c-19 -12 -30 -12 -30 -1 0 10 31 20 40 14 2 -2 -2 -8 -10 -13z
m-3785 -260 c-3 -5 -10 -10 -16 -10 -5 0 -9 5 -9 10 0 6 7 10 16 10 8 0 12 -4
9 -10z m602 -130 c14 -11 32 -20 39 -20 7 0 19 -8 26 -18 7 -10 25 -22 41 -26
18 -4 27 -13 27 -27 0 -11 9 -23 22 -28 14 -5 17 -10 10 -15 -6 -4 -20 1 -30
11 -10 10 -25 19 -33 21 -21 5 -40 24 -50 49 -6 15 -14 21 -24 17 -9 -4 -14
-13 -11 -21 19 -49 17 -58 -15 -70 -27 -11 -30 -16 -25 -38 8 -33 -20 -47 -40
-20 -8 10 -16 16 -20 13 -3 -4 3 -15 13 -25 11 -11 22 -27 26 -36 3 -9 13 -17
21 -17 7 0 13 -8 12 -17 -2 -24 33 -29 49 -6 13 17 15 17 31 1 20 -19 11 -38
-15 -31 -29 7 -34 -14 -11 -47 25 -35 42 -38 69 -11 20 20 20 20 26 0 5 -16
10 -17 27 -8 13 7 23 7 27 1 8 -13 73 -13 89 0 9 8 16 8 24 0 17 -17 -7 -64
-45 -87 -47 -29 -50 -29 -43 -8 4 13 -1 26 -15 39 -21 19 -21 19 -19 -11 3
-46 1 -49 -17 -33 -45 39 -97 20 -91 -33 3 -21 -2 -24 -42 -30 -36 -5 -48 -3
-63 12 -21 22 -19 22 -69 7 -26 -8 -43 -20 -49 -36 -13 -35 -12 -38 19 -37 21
0 27 -5 27 -21 1 -12 7 -29 14 -37 13 -16 8 -37 -9 -37 -32 0 -119 118 -104
142 4 7 2 8 -4 4 -6 -4 -28 11 -49 34 -54 57 -68 53 -84 -25 -7 -36 -16 -65
-21 -65 -4 0 -8 -11 -8 -25 0 -22 3 -24 30 -18 32 6 39 -7 20 -37 -5 -9 -5
-19 2 -27 6 -7 8 -26 5 -42 -5 -23 -1 -33 16 -45 l22 -15 -22 -20 c-22 -18
-22 -19 -3 -24 13 -3 20 0 20 10 0 12 7 14 27 8 16 -4 29 -8 30 -9 5 -5 -20
-84 -40 -123 -13 -27 -27 -43 -39 -43 -10 0 -18 -7 -18 -15 0 -8 9 -15 21 -15
29 0 59 -18 59 -35 0 -18 10 -18 33 0 15 10 25 11 42 3 19 -9 32 -6 65 11 22
11 42 21 45 21 2 0 11 -23 21 -52 9 -28 31 -81 49 -117 42 -86 44 -93 28 -109
-16 -16 -17 -74 -2 -89 13 -13 3 -119 -11 -128 -5 -3 -18 0 -29 7 -28 17 -47
-1 -32 -31 15 -26 3 -101 -15 -101 -18 0 -103 20 -129 31 -11 4 -30 11 -42 14
-13 4 -23 11 -23 16 0 5 -6 9 -13 9 -36 0 -164 143 -185 207 -7 21 -7 50 -1
90 6 32 13 74 16 93 6 39 21 63 34 54 5 -3 9 1 9 10 0 8 -6 16 -12 19 -10 3
-10 9 0 26 10 18 10 21 -4 21 -15 0 -67 -38 -133 -97 -42 -38 -51 -33 -62 34
-9 59 -3 130 17 202 8 29 17 70 18 90 4 44 23 123 43 172 8 20 23 65 33 100
41 143 156 399 180 399 4 0 11 -7 14 -16 4 -9 2 -13 -5 -8 -8 4 -9 -3 -4 -25
4 -17 2 -31 -3 -31 -13 0 -28 -41 -24 -66 2 -12 11 -24 21 -27 14 -3 22 9 42
65 13 39 27 72 31 75 5 2 8 31 8 64 0 55 -3 63 -30 87 -33 29 -40 56 -12 48 9
-2 32 -7 50 -11 34 -7 33 -4 36 -102 1 -32 11 -36 31 -13 10 11 13 20 7 20 -6
0 -9 7 -6 15 4 10 11 12 22 6 11 -6 20 -4 27 6 10 14 15 14 44 -2 18 -9 35
-14 39 -11 3 3 0 6 -7 6 -9 0 -12 12 -9 40 2 22 0 40 -4 40 -5 0 -8 5 -8 10 0
15 9 12 37 -10z m-436 -27 c41 -19 44 -30 15 -47 -13 -9 -19 -7 -27 7 -12 21
-29 22 -29 1 0 -9 -7 -14 -17 -12 -19 4 -19 33 -1 56 13 15 14 15 59 -5z m57
-105 c-3 -7 -11 -13 -18 -13 -7 0 -15 6 -17 13 -3 7 4 12 17 12 13 0 20 -5 18
-12z m442 -99 c0 -5 -9 -9 -19 -9 -14 0 -18 5 -14 20 4 16 8 18 19 9 8 -6 14
-15 14 -20z m160 22 c0 -5 12 -24 26 -41 l27 -31 -32 -30 c-18 -16 -34 -29
-37 -29 -2 0 -4 32 -4 70 0 40 4 70 10 70 6 0 10 -4 10 -9z m-225 -351 c-3 -5
-12 -7 -20 -3 -21 7 -19 13 6 13 11 0 18 -4 14 -10z m-245 -29 c0 -17 -27 -37
-37 -27 -4 4 28 46 34 46 2 0 3 -9 3 -19z m1954 -22 c54 -42 85 -86 93 -132 5
-35 0 -47 -62 -129 -11 -14 -31 -41 -45 -59 -14 -18 -33 -41 -42 -51 -10 -10
-18 -24 -18 -32 0 -8 -13 -45 -29 -83 -16 -37 -33 -98 -36 -133 -4 -36 -16
-82 -26 -103 -10 -21 -19 -46 -19 -57 0 -30 -20 -67 -44 -80 -11 -7 -35 -31
-51 -53 -24 -32 -38 -42 -60 -43 -17 0 -40 -4 -52 -8 -13 -4 -23 -5 -23 -2 0
3 10 16 23 29 42 44 77 89 77 98 0 14 -26 11 -39 -5 -6 -7 -22 -11 -36 -8 -31
5 -57 -15 -50 -38 10 -31 -51 -65 -107 -61 -29 2 -21 20 37 83 30 32 55 65 55
73 0 22 -29 26 -68 7 -28 -13 -36 -23 -35 -40 2 -16 -8 -29 -37 -47 -34 -21
-43 -23 -60 -13 -30 19 -24 42 23 82 56 49 54 47 82 79 29 33 32 52 8 44 -60
-19 -63 -19 -63 -4 0 8 -7 18 -16 21 -10 4 -13 2 -8 -6 12 -19 14 -58 3 -58
-5 0 -9 -7 -9 -15 0 -12 -37 -25 -75 -27 -24 0 -46 -20 -41 -35 4 -10 -2 -21
-14 -30 -14 -10 -18 -21 -14 -37 3 -14 -3 -37 -16 -59 l-22 -37 30 6 c28 6 30
4 25 -17 -11 -44 -23 -51 -44 -25 -11 13 -19 30 -19 37 0 7 -7 20 -16 30 -36
40 6 117 143 261 35 36 63 75 63 85 0 18 -6 19 -60 16 -48 -3 -60 0 -60 11 0
8 4 17 9 21 5 3 17 29 25 58 23 77 92 194 124 211 15 7 63 21 107 31 44 9 89
19 100 22 22 6 128 112 195 193 25 30 49 59 55 63 22 17 95 -1 139 -34z
m-1946 -89 c-13 -20 -28 -27 -28 -12 0 10 22 32 32 32 5 0 3 -9 -4 -20z m-3
-80 c3 -5 -1 -10 -10 -10 -9 0 -13 5 -10 10 3 6 8 10 10 10 2 0 7 -4 10 -10z
m305 -806 c11 -29 6 -44 -16 -44 -9 0 -14 11 -14 35 0 41 16 46 30 9z m1206
-25 c10 -17 -23 -46 -37 -32 -7 7 -9 19 -6 27 7 18 33 21 43 5z m-201 -59 c-9
-33 -10 -34 -34 -20 -23 12 -29 56 -8 63 24 8 48 -16 42 -43z m-1438 -60 c-32
-10 -70 -13 -107 -10 -24 2 -23 3 5 10 17 4 53 8 80 8 43 0 46 -1 22 -8z m383
-72 c0 -18 -2 -20 -9 -8 -6 8 -7 18 -5 22 9 14 14 9 14 -14z m-495 -198 c-3
-5 -17 -10 -30 -10 -13 0 -27 5 -30 10 -4 6 8 10 30 10 22 0 34 -4 30 -10z
m-142 -17 c-13 -2 -33 -2 -45 0 -13 2 -3 4 22 4 25 0 35 -2 23 -4z m3227 -237
c0 -8 -4 -18 -10 -21 -5 -3 -10 3 -10 14 0 12 5 21 10 21 6 0 10 -6 10 -14z
m1638 -93 c-10 -2 -26 -2 -35 0 -10 3 -2 5 17 5 19 0 27 -2 18 -5z m-1608 -31
c0 -5 -9 -27 -20 -50 -11 -22 -20 -46 -20 -52 0 -5 -2 -10 -4 -10 -2 0 -11 -3
-20 -6 -26 -10 -22 74 6 103 21 22 58 32 58 15z m420 -864 c-1 -21 -31 -50
-100 -98 -36 -24 -66 -47 -68 -51 -2 -4 -23 -13 -48 -20 -24 -8 -58 -26 -74
-41 -17 -15 -39 -26 -50 -25 -21 1 -38 29 -20 35 6 2 17 19 25 38 15 36 37 47
28 14 -6 -24 12 -27 25 -4 5 8 20 21 33 27 13 7 25 23 27 35 2 12 9 22 15 22
8 0 7 4 -2 9 -9 6 8 11 53 16 36 4 70 13 74 20 17 29 82 47 82 23z m57 -80
c-2 -7 -12 -12 -22 -10 -13 3 -16 -1 -11 -13 4 -11 2 -14 -6 -9 -8 5 -9 2 -5
-9 4 -11 1 -17 -8 -17 -8 0 -15 -4 -15 -10 0 -5 -16 -10 -35 -10 -19 0 -35 -4
-35 -9 0 -5 -8 -11 -17 -15 -10 -3 -34 -17 -53 -32 -19 -14 -36 -20 -38 -15
-2 6 -10 11 -18 11 -8 0 -14 7 -14 16 0 13 3 14 14 4 12 -9 18 -7 33 9 10 12
29 21 45 21 16 0 28 5 28 12 0 19 31 47 46 41 7 -3 28 7 46 21 35 27 73 35 65
14z m-103 -143 l25 -25 -36 -15 c-44 -18 -43 -18 -43 0 0 14 12 19 33 16 4 0
7 6 7 14 0 8 -7 15 -15 15 -8 0 -15 5 -15 10 0 17 18 11 44 -15z"/>
<path d="M5043 7605 c-3 -9 -3 -19 1 -22 8 -9 37 18 30 28 -8 14 -24 11 -31
-6z"/>
<path d="M2433 6963 c-22 -8 -14 -23 12 -23 16 0 25 6 25 15 0 15 -14 18 -37
8z"/>
<path d="M1740 6257 c0 -9 -5 -17 -12 -17 -6 0 -8 -3 -5 -7 4 -3 2 -12 -4 -20
-9 -9 -8 -13 0 -13 6 0 11 4 11 9 0 5 7 17 16 26 13 12 14 19 5 28 -8 8 -11 7
-11 -6z"/>
<path d="M1701 6104 c0 -11 3 -14 6 -6 3 7 2 16 -1 19 -3 4 -6 -2 -5 -13z"/>
<path d="M1650 5978 c0 -19 2 -20 10 -8 13 19 13 30 0 30 -5 0 -10 -10 -10
-22z"/>
<path d="M1070 3995 c0 -9 6 -12 15 -9 8 4 12 10 9 15 -8 14 -24 10 -24 -6z"/>
<path d="M934 3254 c3 -9 6 -20 6 -25 0 -5 5 -9 10 -9 6 0 10 11 10 25 0 16
-6 25 -16 25 -11 0 -14 -5 -10 -16z"/>
<path d="M891 3121 c-11 -7 -9 -10 8 -16 25 -8 36 -2 26 14 -8 13 -15 14 -34
2z"/>
<path d="M1158 2693 c7 -3 16 -2 19 1 4 3 -2 6 -13 5 -11 0 -14 -3 -6 -6z"/>
<path d="M2412 3158 c-7 -7 -12 -19 -12 -27 0 -11 5 -8 16 7 18 25 15 39 -4
20z"/>
<path d="M4810 8941 c-13 -25 -13 -51 1 -51 20 0 49 21 49 35 0 24 57 19 70
-6 10 -17 14 -18 27 -7 9 7 31 13 50 13 37 0 38 -7 18 -74 -7 -19 -5 -22 10
-19 11 2 22 16 27 35 5 18 18 38 30 44 l21 11 -24 19 c-20 16 -43 19 -146 19
-111 0 -123 -2 -133 -19z"/>
<path d="M5267 8890 c4 -16 8 -18 19 -9 20 16 17 29 -5 29 -14 0 -18 -5 -14
-20z"/>
<path d="M4347 8820 c-6 -25 9 -36 29 -20 11 10 12 16 3 26 -16 19 -26 17 -32
-6z"/>
<path d="M3790 8810 c0 -5 6 -10 14 -10 8 0 18 5 21 10 3 6 -3 10 -14 10 -12
0 -21 -4 -21 -10z"/>
<path d="M3766 8771 c-8 -13 4 -42 15 -35 12 7 12 44 0 44 -6 0 -12 -4 -15 -9z"/>
<path d="M5018 8643 c7 -3 16 -2 19 1 4 3 -2 6 -13 5 -11 0 -14 -3 -6 -6z"/>
<path d="M5023 8592 c-8 -5 -6 -14 8 -32 19 -25 20 -25 34 -5 9 10 14 24 12
30 -4 13 -38 18 -54 7z"/>
<path d="M5185 8400 c-16 -7 -17 -9 -3 -9 9 -1 20 4 23 9 7 11 7 11 -20 0z"/>
<path d="M4370 5005 c0 -8 7 -15 15 -15 8 0 15 -8 16 -17 0 -13 3 -12 10 5 5
13 7 28 3 33 -9 15 -44 10 -44 -6z"/>
<path d="M5148 5010 c-7 -23 3 -61 16 -57 17 6 18 30 3 51 -11 15 -15 16 -19
6z"/>
<path d="M4200 5000 c0 -5 7 -10 16 -10 8 0 12 5 9 10 -3 6 -10 10 -16 10 -5
0 -9 -4 -9 -10z"/>
<path d="M4330 5000 c0 -5 5 -10 10 -10 6 0 10 5 10 10 0 6 -4 10 -10 10 -5 0
-10 -4 -10 -10z"/>
<path d="M605 4510 c-3 -5 -1 -10 4 -10 6 0 11 5 11 10 0 6 -2 10 -4 10 -3 0
-8 -4 -11 -10z"/>
<path d="M728 4451 c-20 -36 -15 -42 23 -28 21 9 29 17 27 32 -5 31 -31 29
-50 -4z"/>
<path d="M5574 4459 c-10 -17 13 -36 27 -22 12 12 4 33 -11 33 -5 0 -12 -5
-16 -11z"/>
<path d="M878 4403 c-33 -17 -36 -39 -8 -48 11 -3 20 -11 20 -16 0 -5 5 -9 11
-9 6 0 9 9 6 20 -3 10 1 24 9 31 17 14 18 39 2 38 -7 -1 -25 -8 -40 -16z"/>
<path d="M217 4364 c-9 -10 12 -34 30 -34 19 0 12 34 -8 38 -8 1 -18 0 -22 -4z"/>
<path d="M160 4340 c0 -5 -19 -15 -42 -21 -46 -13 -68 -26 -68 -40 0 -5 7 -9
15 -9 17 0 20 -25 5 -35 -17 -10 -48 4 -46 22 0 9 -5 18 -11 20 -16 6 -17 -35
-3 -71 13 -35 42 -33 73 4 14 17 34 30 43 30 17 0 17 1 -1 13 -17 13 -17 14 5
20 28 7 40 1 40 -19 0 -21 19 -7 30 21 10 27 -8 75 -27 75 -7 0 -13 -4 -13
-10z"/>
<path d="M900 4300 c0 -5 5 -10 10 -10 6 0 10 5 10 10 0 6 -4 10 -10 10 -5 0
-10 -4 -10 -10z"/>
<path d="M719 4268 c6 -16 19 -25 46 -29 l38 -6 -33 28 c-40 36 -63 38 -51 7z"/>
<path d="M210 4251 c0 -10 40 -22 52 -15 18 11 6 24 -22 24 -16 0 -30 -4 -30
-9z"/>
<path d="M5415 2599 c-104 -4 -210 -8 -235 -9 -42 -2 -43 -3 -15 -10 17 -4
155 -8 308 -8 257 -2 277 0 277 16 0 20 -28 21 -335 11z"/>
<path d="M4818 2573 c12 -2 32 -2 45 0 12 2 2 4 -23 4 -25 0 -35 -2 -22 -4z"/>
<path d="M4138 2563 c7 -3 16 -2 19 1 4 3 -2 6 -13 5 -11 0 -14 -3 -6 -6z"/>
<path d="M3988 2553 c17 -2 47 -2 65 0 17 2 3 4 -33 4 -36 0 -50 -2 -32 -4z"/>
<path d="M4778 2533 c7 -3 16 -2 19 1 4 3 -2 6 -13 5 -11 0 -14 -3 -6 -6z"/>
<path d="M4993 2534 c9 -10 147 -13 147 -3 0 5 -34 9 -77 9 -42 0 -74 -3 -70
-6z"/>
<path d="M5318 2533 c23 -2 61 -2 85 0 23 2 4 4 -43 4 -47 0 -66 -2 -42 -4z"/>
<path d="M5503 2530 c16 -5 38 -5 50 0 17 7 10 9 -28 9 -43 -1 -46 -2 -22 -9z"/>
<path d="M5608 2533 c7 -3 16 -2 19 1 4 3 -2 6 -13 5 -11 0 -14 -3 -6 -6z"/>
<path d="M5718 2533 c6 -2 18 -2 25 0 6 3 1 5 -13 5 -14 0 -19 -2 -12 -5z"/>
<path d="M4143 2518 c-16 -6 -16 -7 2 -7 11 -1 37 -4 58 -7 22 -4 37 -3 37 4
0 12 -73 20 -97 10z"/>
<path d="M4283 2503 c9 -2 23 -2 30 0 6 3 -1 5 -18 5 -16 0 -22 -2 -12 -5z"/>
<path d="M0 2454 c0 -11 5 -14 16 -10 9 3 28 6 42 6 21 0 24 2 12 10 -25 16
-70 12 -70 -6z"/>
<path d="M125 2461 c-3 -5 -1 -13 5 -16 15 -9 160 5 160 16 0 12 -157 12 -165
0z"/>
<path d="M250 2422 c-41 -2 -79 -7 -83 -11 -5 -5 8 -16 27 -25 27 -13 41 -14
55 -6 11 5 44 10 74 10 71 0 119 10 114 24 -4 11 -52 13 -187 8z"/>
<path d="M20 2406 c0 -2 16 -6 35 -8 19 -2 35 0 35 4 0 4 -16 8 -35 8 -19 0
-35 -2 -35 -4z"/>
<path d="M5712 2384 c4 -21 22 -23 26 -1 2 10 -3 17 -13 17 -10 0 -15 -6 -13
-16z"/>
<path d="M5550 2354 c-6 -16 -16 -32 -23 -36 -6 -3 16 -6 49 -5 32 1 51 3 42
5 -10 2 -18 9 -18 16 0 7 -9 21 -20 31 -19 17 -20 17 -30 -11z"/>
<path d="M5600 2360 c0 -5 9 -10 21 -10 11 0 17 5 14 10 -3 6 -13 10 -21 10
-8 0 -14 -4 -14 -10z"/>
<path d="M5265 2320 c-19 -8 -19 -9 2 -9 12 -1 25 4 28 9 7 12 -2 12 -30 0z"/>
<path d="M5448 2313 c7 -3 16 -2 19 1 4 3 -2 6 -13 5 -11 0 -14 -3 -6 -6z"/>
<path d="M5718 2313 c7 -3 16 -2 19 1 4 3 -2 6 -13 5 -11 0 -14 -3 -6 -6z"/>
<path d="M212 2258 c-23 -28 -18 -68 8 -68 11 0 20 -7 20 -15 0 -8 5 -15 11
-15 12 0 9 49 -4 67 -4 6 -3 14 3 18 13 8 3 25 -14 25 -8 0 -18 -6 -24 -12z"/>
<path d="M536 2235 c21 -16 79 -21 69 -6 -3 5 3 12 12 14 10 3 -9 5 -41 6 -55
1 -58 0 -40 -14z"/>
<path d="M8 2153 c7 -3 16 -2 19 1 4 3 -2 6 -13 5 -11 0 -14 -3 -6 -6z"/>
<path d="M3477 144 c-11 -11 3 -24 24 -24 12 0 19 5 17 13 -5 14 -31 21 -41
11z"/>
</g>
</svg>
